<?xml version="1.0" encoding="UTF-8" standalone="no"?>
<!-- Generator: Adobe Illustrator 23.0.3, SVG Export Plug-In . SVG Version: 6.00 Build 0)  -->
<svg xmlns:ns="&amp;ns_sfw;" xmlns:dc="http://purl.org/dc/elements/1.1/" xmlns:cc="http://creativecommons.org/ns#" xmlns:rdf="http://www.w3.org/1999/02/22-rdf-syntax-ns#" xmlns:svg="http://www.w3.org/2000/svg" xmlns="http://www.w3.org/2000/svg" xmlns:sodipodi="http://sodipodi.sourceforge.net/DTD/sodipodi-0.dtd" xmlns:inkscape="http://www.inkscape.org/namespaces/inkscape" version="1.1" id="svg2" inkscape:version="0.92.3 (2405546, 2018-03-11)" sodipodi:docname="Apple_and_Google_Partner_for_COVID-19_(logo).svg" x="0px" y="0px" width="1000" height="249.85695" viewBox="0 0 999.99996 249.85695" xml:space="preserve"><defs id="defs24"/>
<style type="text/css" id="style2">
	.st0{fill:none;stroke:#000000;stroke-width:10;stroke-miterlimit:10;}
</style>
<metadata id="metadata10">
	<rdf:RDF>
		<cc:Work rdf:about="">
			<dc:format>image/svg+xml</dc:format>
			<dc:type rdf:resource="http://purl.org/dc/dcmitype/StillImage"/>
			<dc:title/>
		</cc:Work>
	</rdf:RDF>
	<ns:sfw>
		<ns:slices/>
		<ns:sliceSourceBounds bottomLeftOrigin="true" height="1355.6" width="5425.7" x="0" y="-168.3"/>
	</ns:sfw>
</metadata>
<sodipodi:namedview bordercolor="#666666" borderopacity="1" gridtolerance="10" guidetolerance="10" id="namedview6" inkscape:current-layer="svg2" inkscape:cx="1819.9366" inkscape:cy="964.94677" inkscape:pageopacity="0" inkscape:pageshadow="2" inkscape:window-height="705" inkscape:window-maximized="1" inkscape:window-width="1366" inkscape:window-x="-8" inkscape:window-y="-8" inkscape:zoom="0.08838835" objecttolerance="10" pagecolor="#ffffff" showgrid="false">
	</sodipodi:namedview>
<path id="path4" inkscape:connector-curvature="0" d="m 180.43755,170.5307 c -3.31755,7.6488 -7.22488,14.6894 -11.75885,21.1586 -6.19275,8.8283 -11.24279,14.9289 -15.15012,18.3202 -6.04531,5.5661 -12.53295,8.4229 -19.48136,8.5703 -4.97632,0 -11.00319,-1.4191 -17.98846,-4.2943 -7.02214,-2.8568 -13.47292,-4.276 -19.370775,-4.276 -6.192749,0 -12.827838,1.4192 -19.923697,4.276 -7.114289,2.8752 -12.827837,4.3681 -17.214368,4.5155 -6.65352,0.2765 -13.288608,-2.654 -19.923697,-8.8099 C 35.40557,206.3049 30.11593,199.9832 23.775734,191.0258 16.974768,181.4602 11.390235,170.3833 7.0221354,157.7398 2.3591426,144.101 0,130.8676 0,118.0767 0,103.4058 3.1700979,90.762198 9.5102936,80.164498 c 4.9947474,-8.515 11.6298354,-15.2238 19.9236964,-20.1633 8.312292,-4.921 17.269661,-7.446 26.945832,-7.6119 5.28964,0 12.219621,1.6403 20.845237,4.8473 8.588753,3.2254 14.117994,4.8657 16.532429,4.8657 1.806218,0 7.943672,-1.9168 18.320212,-5.732 9.82362,-3.5387 18.11748,-4.9947 24.91845,-4.4233 18.41237,1.4928 32.23547,8.7362 41.43244,21.822 -16.45871,9.9711 -24.60512,23.9416 -24.43924,41.874802 0.14744,13.9706 5.21591,25.582 15.16855,34.7974 4.51554,4.2759 9.54715,7.5934 15.15012,9.9342 -1.21644,3.5387 -2.50659,6.9115 -3.87047,10.1553 z M 138.23101,4.3954985 c 0,10.9478995 -3.99948,21.1584995 -11.96159,30.6134995 -9.62088,11.2428 -21.25071,17.7305 -33.857381,16.7168 -0.165877,-1.3086 -0.258031,-2.6909 -0.258031,-4.1469 0,-10.5056 4.570839,-21.7484 12.698822,-30.9454 4.05478,-4.663 9.2154,-8.5333995 15.46344,-11.6113995 6.24804,-3.0411 12.1459,-4.71830003 17.69357,-5.01310003 0.14745,1.47440003 0.22117,2.93050003 0.22117,4.38650003 z" style="stroke-width:0.18430802"/>
<g id="g19" transform="matrix(0.18430802,0,0,0.18430802,0,0.00899847)">
	<path d="m 3266.2,766.8 c 0,178.8 -139.9,310.5 -311.5,310.5 -171.6,0 -311.5,-131.7 -311.5,-310.5 0,-180 139.9,-310.5 311.5,-310.5 171.7,0 311.5,130.5 311.5,310.5 z m -136.3,0 c 0,-111.7 -81.1,-188.2 -175.1,-188.2 -94.1,0 -175.1,76.4 -175.1,188.2 0,110.6 81.1,188.2 175.1,188.2 94,0 175.1,-77.7 175.1,-188.2 z" id="path7" inkscape:connector-curvature="0"/>
	<path d="m 3938.2,766.8 c 0,178.8 -139.9,310.5 -311.5,310.5 -171.6,0 -311.5,-131.7 -311.5,-310.5 0,-179.9 139.9,-310.5 311.5,-310.5 171.7,0 311.5,130.5 311.5,310.5 z m -136.3,0 c 0,-111.7 -81.1,-188.2 -175.1,-188.2 -94.1,0 -175.1,76.4 -175.1,188.2 0,110.6 81.1,188.2 175.1,188.2 94,0 175.1,-77.7 175.1,-188.2 z" id="path9" inkscape:connector-curvature="0"/>
	<path d="m 4582.2,475.1 v 557.5 c 0,229.3 -135.2,323 -295.1,323 -150.5,0 -241.1,-100.7 -275.2,-183 l 118.7,-49.4 c 21.1,50.5 72.9,110.2 156.4,110.2 102.3,0 165.8,-63.1 165.8,-182 v -44.7 h -4.8 c -30.5,37.7 -89.3,70.6 -163.5,70.6 C 4129.2,1077.2 3987,942 3987,768 c 0,-175.3 142.2,-311.6 297.5,-311.6 74.1,0 132.9,32.9 163.5,69.4 h 4.8 v -50.5 h 129.5 z M 4462.4,768 c 0,-109.3 -72.9,-189.3 -165.8,-189.3 -94.1,0 -172.9,79.9 -172.9,189.3 0,108.2 78.8,187 172.9,187 92.9,0 165.8,-78.8 165.8,-187 z" id="path11" inkscape:connector-curvature="0"/>
	<path d="m 4795.7,148.3 v 910 h -133 v -910 z" id="path13" inkscape:connector-curvature="0"/>
	<path d="m 5314,869 105.8,70.6 c -34.2,50.5 -116.5,137.6 -258.7,137.6 -176.4,0 -308.1,-136.4 -308.1,-310.5 0,-184.7 132.9,-310.5 292.9,-310.5 161.1,0 240,128.2 265.7,197.5 l 14.1,35.3 -415.1,171.9 c 31.8,62.3 81.2,94.1 150.5,94.1 69.5,0 117.6,-34.2 152.9,-86 z M 4988.2,757.3 5265.7,642.1 c -15.3,-38.8 -61.2,-65.8 -115.2,-65.8 -69.3,0 -165.8,61.2 -162.3,181 z" id="path15" inkscape:connector-curvature="0"/>
	<path d="M 2139.8,686.1 V 554.3 h 443.9 c 4.3,23 6.6,50.1 6.6,79.5 0,98.8 -27,221.1 -114.1,308.1 -84.7,88.2 -192.9,135.2 -336.3,135.2 -265.7,0 -489.2,-216.4 -489.2,-482.2 0,-265.8 223.4,-482.2 489.2,-482.2 147,0 251.7,57.7 330.4,132.9 l -93,93 c -56.4,-52.9 -132.9,-94.1 -237.6,-94.1 -194,0 -345.8,156.4 -345.8,350.4 0,194 151.8,350.4 345.8,350.4 125.9,0 197.5,-50.5 243.5,-96.5 37.2,-37.2 61.7,-90.4 71.4,-163.1 z" id="path17" inkscape:connector-curvature="0"/>
</g>
<line class="st0" x1="244.35558" y1="0.0089736693" x2="241.9227" y2="249.83844" id="line21" style="fill:none;stroke:#000000;stroke-width:1.84308016;stroke-miterlimit:10"/>
</svg>